<svg width="1024" height="1024" viewBox="0 0 1024 1024" fill="none" xmlns="http://www.w3.org/2000/svg">
<path fill-rule="evenodd" clip-rule="evenodd" d="M615.817 455.198L688.145 325.897H888.928L688.145 691.526C687.566 694.612 684.095 700.783 674.837 700.783C665.579 700.783 659.214 694.612 657.189 691.526L423.135 264.284C416.288 251.074 388.476 224.655 332.002 224.655H41.2434C19.4485 229.958 -17.4291 254.102 9.41905 308.252L255.334 750.536C264.11 767.024 298.037 800 363.537 800C429.037 800 456.406 767.024 461.903 750.536L513.111 641.773L574.735 750.536C586.886 767.024 623.918 800 674.837 800C725.756 800 761.437 767.024 772.914 750.536L1017.38 303.334C1030.69 272.865 1032.89 214.357 935.218 224.076H680.334C664.711 225.522 627.737 235.589 604.823 264.284L561.137 346.145C558.34 366.972 557.955 431.131 615.817 455.198ZM341.549 325.318H136.716L339.235 692.683C341.935 695.576 349.766 701.361 359.487 701.361C369.208 701.361 375.495 695.576 377.424 692.683L453.513 530.406L341.549 325.318Z" fill="#fff"/>
</svg>
