<svg width="100" height="100" viewBox="0 0 100 100" fill="none" xmlns="http://www.w3.org/2000/svg">
<g filter="url(#filter0_d_8_152)">
<path d="M71.9586 18.0576C74.9915 18.2975 77.9184 19.2816 80.4801 20.9229C83.0418 22.5641 85.1592 24.8118 86.6447 27.4668C88.1302 30.1218 88.938 33.1022 88.9966 36.144C89.0551 39.1857 88.3626 42.195 86.9804 44.9052C85.5981 47.6154 83.5688 49.9429 81.0722 51.6815C78.5756 53.4202 75.6887 54.5162 72.6673 54.8726C69.6459 55.229 66.5833 54.8348 63.7506 53.7249C60.918 52.6149 58.4028 50.8235 56.4278 48.5094C72.6673 54.8726 79.2421 42.936 80.0424 41.3668C80.8428 39.7975 86.6447 27.4668 71.9586 18.0576Z" fill="#B5B5B5"/>
</g>
<g filter="url(#filter1_b_8_152)">
<path d="M35.6521 83.4405C17.0666 83.4405 2 68.3434 2 49.7202C2 31.0971 17.0666 16 35.6521 16C49.9432 16 62.1536 24.9263 67.0334 37.5182C69.2853 36.7982 71.6848 36.4096 74.1749 36.4096C87.1359 36.4096 97.6429 46.9378 97.6429 59.925C97.6429 72.9123 87.1359 83.4405 74.1749 83.4405H35.6521Z" fill="url(#paint0_linear_8_152)"/>
</g>
<defs>
<filter id="filter0_d_8_152" x="45.4278" y="7.05762" width="54.5722" height="58.9424" filterUnits="userSpaceOnUse" color-interpolation-filters="sRGB">
<feFlood flood-opacity="0" result="BackgroundImageFix"/>
<feColorMatrix in="SourceAlpha" type="matrix" values="0 0 0 0 0 0 0 0 0 0 0 0 0 0 0 0 0 0 127 0" result="hardAlpha"/>
<feOffset/>
<feGaussianBlur stdDeviation="5.5"/>
<feComposite in2="hardAlpha" operator="out"/>
<feColorMatrix type="matrix" values="0 0 0 0 0.709804 0 0 0 0 0.709804 0 0 0 0 0.709804 0 0 0 1 0"/>
<feBlend mode="normal" in2="BackgroundImageFix" result="effect1_dropShadow_8_152"/>
<feBlend mode="normal" in="SourceGraphic" in2="effect1_dropShadow_8_152" result="shape"/>
</filter>
<filter id="filter1_b_8_152" x="-20" y="-6" width="139.643" height="111.44" filterUnits="userSpaceOnUse" color-interpolation-filters="sRGB">
<feFlood flood-opacity="0" result="BackgroundImageFix"/>
<feGaussianBlur in="BackgroundImageFix" stdDeviation="11"/>
<feComposite in2="SourceAlpha" operator="in" result="effect1_backgroundBlur_8_152"/>
<feBlend mode="normal" in="SourceGraphic" in2="effect1_backgroundBlur_8_152" result="shape"/>
</filter>
<linearGradient id="paint0_linear_8_152" x1="2" y1="16" x2="97.7709" y2="83.2582" gradientUnits="userSpaceOnUse">
<stop stop-color="#D9D9D9"/>
<stop offset="1" stop-color="#D9D9D9" stop-opacity="0"/>
</linearGradient>
</defs>
</svg>
