<svg width="100" height="100" viewBox="0 0 100 100" fill="none" xmlns="http://www.w3.org/2000/svg">
<g filter="url(#filter0_d_5_48)">
<ellipse cx="55.5" cy="42" rx="21.5" ry="21" fill="#FF7E36"/>
</g>
<g filter="url(#filter1_b_5_48)">
<path d="M21.8148 74C9.76683 74 0 64.598 0 53C0 41.402 9.76683 32 21.8148 32C31.0789 32 38.9943 37.559 42.1576 45.4009C43.6173 44.9525 45.1728 44.7105 46.787 44.7105C55.1889 44.7105 62 51.2672 62 59.3553C62 67.4433 55.1889 74 46.787 74H21.8148Z" fill="url(#paint0_linear_5_48)"/>
</g>
<g filter="url(#filter2_b_5_48)">
<path d="M78.1852 79C90.2332 79 100 69.598 100 58C100 46.402 90.2332 37 78.1852 37C68.9211 37 61.0057 42.559 57.8424 50.4009C56.3827 49.9525 54.8272 49.7105 53.213 49.7105C44.8111 49.7105 38 56.2672 38 64.3553C38 72.4433 44.8111 79 53.213 79H78.1852Z" fill="url(#paint1_linear_5_48)"/>
</g>
<defs>
<filter id="filter0_d_5_48" x="23" y="10" width="65" height="64" filterUnits="userSpaceOnUse" color-interpolation-filters="sRGB">
<feFlood flood-opacity="0" result="BackgroundImageFix"/>
<feColorMatrix in="SourceAlpha" type="matrix" values="0 0 0 0 0 0 0 0 0 0 0 0 0 0 0 0 0 0 127 0" result="hardAlpha"/>
<feOffset/>
<feGaussianBlur stdDeviation="5.5"/>
<feComposite in2="hardAlpha" operator="out"/>
<feColorMatrix type="matrix" values="0 0 0 0 1 0 0 0 0 0.494118 0 0 0 0 0.211765 0 0 0 1 0"/>
<feBlend mode="normal" in2="BackgroundImageFix" result="effect1_dropShadow_5_48"/>
<feBlend mode="normal" in="SourceGraphic" in2="effect1_dropShadow_5_48" result="shape"/>
</filter>
<filter id="filter1_b_5_48" x="-22" y="10" width="106" height="86" filterUnits="userSpaceOnUse" color-interpolation-filters="sRGB">
<feFlood flood-opacity="0" result="BackgroundImageFix"/>
<feGaussianBlur in="BackgroundImageFix" stdDeviation="11"/>
<feComposite in2="SourceAlpha" operator="in" result="effect1_backgroundBlur_5_48"/>
<feBlend mode="normal" in="SourceGraphic" in2="effect1_backgroundBlur_5_48" result="shape"/>
</filter>
<filter id="filter2_b_5_48" x="16" y="15" width="106" height="86" filterUnits="userSpaceOnUse" color-interpolation-filters="sRGB">
<feFlood flood-opacity="0" result="BackgroundImageFix"/>
<feGaussianBlur in="BackgroundImageFix" stdDeviation="11"/>
<feComposite in2="SourceAlpha" operator="in" result="effect1_backgroundBlur_5_48"/>
<feBlend mode="normal" in="SourceGraphic" in2="effect1_backgroundBlur_5_48" result="shape"/>
</filter>
<linearGradient id="paint0_linear_5_48" x1="0" y1="32" x2="60.4171" y2="76.1654" gradientUnits="userSpaceOnUse">
<stop stop-color="#D9D9D9"/>
<stop offset="1" stop-color="#D9D9D9" stop-opacity="0"/>
</linearGradient>
<linearGradient id="paint1_linear_5_48" x1="100" y1="37" x2="39.5829" y2="81.1654" gradientUnits="userSpaceOnUse">
<stop stop-color="#D9D9D9"/>
<stop offset="1" stop-color="#D9D9D9" stop-opacity="0"/>
</linearGradient>
</defs>
</svg>
