<svg width="100" height="100" viewBox="0 0 100 100" fill="none" xmlns="http://www.w3.org/2000/svg">
<g clip-path="url(#clip0_22_85)">
<g filter="url(#filter0_d_22_85)">
<path d="M15 31L28.6111 38.6M28.6111 38.6L50 50M28.6111 38.6L15 42.4M28.6111 38.6L26.6667 25.3M85 69L71.3889 61.4M71.3889 61.4L50 50M71.3889 61.4L73.3333 74.7M71.3889 61.4L85 57.6M50 50L28.6111 61.4M50 50V23.4M50 50V74.7M50 50L71.3889 38.6M28.6111 61.4L15 69M28.6111 61.4L15 57.6M28.6111 61.4L26.6667 74.7M50 23.4V12M50 23.4L40.2778 19.6M50 23.4L59.7222 19.6M50 74.7V88M50 74.7L59.7222 80.4M50 74.7L40.2778 80.4M71.3889 38.6L85 31M71.3889 38.6L85 42.4M71.3889 38.6L73.3333 25.3" stroke="#B5B5B5" stroke-width="5.5" stroke-linecap="round" stroke-linejoin="round" shape-rendering="crispEdges"/>
</g>
</g>
<defs>
<filter id="filter0_d_22_85" x="1.2493" y="-1.75" width="97.5014" height="103.5" filterUnits="userSpaceOnUse" color-interpolation-filters="sRGB">
<feFlood flood-opacity="0" result="BackgroundImageFix"/>
<feColorMatrix in="SourceAlpha" type="matrix" values="0 0 0 0 0 0 0 0 0 0 0 0 0 0 0 0 0 0 127 0" result="hardAlpha"/>
<feOffset/>
<feGaussianBlur stdDeviation="5.5"/>
<feComposite in2="hardAlpha" operator="out"/>
<feColorMatrix type="matrix" values="0 0 0 0 0.709804 0 0 0 0 0.709804 0 0 0 0 0.709804 0 0 0 1 0"/>
<feBlend mode="normal" in2="BackgroundImageFix" result="effect1_dropShadow_22_85"/>
<feBlend mode="normal" in="SourceGraphic" in2="effect1_dropShadow_22_85" result="shape"/>
</filter>
<clipPath id="clip0_22_85">
<rect width="100" height="100" fill="white"/>
</clipPath>
</defs>
</svg>
